<svg width="100%" height="100%" viewBox="0 0 500 500" fill="none" xmlns="http://www.w3.org/2000/svg">
  <rect width="500" height="500" rx="100" fill="#222222" />
  <path
    d="M196.95 395.2C182.717 395.2 169.883 392.283 158.45 386.45C147.25 380.617 138.267 372.217 131.5 361.25C124.967 350.283 121.7 336.983 121.7 321.35C121.7 319.483 121.7 317.617 121.7 315.75C121.933 313.65 122.167 311.667 122.4 309.8C112.133 300.233 104.667 289.85 100 278.65C95.3333 267.217 93 255.9 93 244.7C93 233.733 94.8667 223.117 98.6 212.85C102.567 202.35 107.7 193.133 114 185.2L114.35 184.5L111.2 179.25C106.067 170.617 103.5 161.983 103.5 153.35C103.5 144.717 105.95 136.9 110.85 129.9C115.983 122.667 122.983 116.95 131.85 112.75C140.95 108.55 151.45 106.45 163.35 106.45C173.85 106.45 185.4 108.317 198 112.05C210.6 115.783 223.667 122.083 237.2 130.95C239.767 132.583 242.333 134.333 244.9 136.2C247.7 138.067 250.383 140.05 252.95 142.15C261.583 137.017 270.217 132.35 278.85 128.15C287.483 123.717 296.117 119.983 304.75 116.95C316.883 112.283 327.85 109.017 337.65 107.15C347.683 105.05 356.55 104 364.25 104C378.717 104 389.45 107.15 396.45 113.45C403.683 119.517 407.3 127.333 407.3 136.9C407.3 145.3 404.617 154.517 399.25 164.55C394.117 174.35 386.3 184.267 375.8 194.3C365.3 204.1 352.35 213.083 336.95 221.25C329.25 225.217 321.433 228.717 313.5 231.75C313.967 233.85 314.433 236.067 314.9 238.4C315.367 240.5 315.717 242.717 315.95 245.05C316.183 246.683 316.3 248.433 316.3 250.3C316.533 252.167 316.65 254.033 316.65 255.9C316.65 269.2 313.617 281.217 307.55 291.95C301.717 302.683 293.667 311.783 283.4 319.25C273.367 326.717 261.817 332.55 248.75 336.75C235.917 340.717 222.617 342.7 208.85 342.7C198.583 342.7 188.2 341.533 177.7 339.2C167.433 336.867 157.517 333.133 147.95 328C147.717 347.6 152.267 362.65 161.6 373.15C170.933 383.883 183.767 389.25 200.1 389.25C208.733 389.25 218.3 387.5 228.8 384C239.3 380.733 250.267 375.833 261.7 369.3C272.667 363 282.933 355.883 292.5 347.95C302.3 339.783 311.05 331.5 318.75 323.1C326.683 314.467 332.867 306.3 337.3 298.6C337.767 297.667 338.467 297.2 339.4 297.2C340.1 297.2 340.683 297.55 341.15 298.25C341.85 298.95 341.967 299.883 341.5 301.05C333.8 314.583 323.183 328 309.65 341.3C296.35 354.367 281.65 365.567 265.55 374.9C253.883 381.667 242.217 386.683 230.55 389.95C218.883 393.45 207.683 395.2 196.95 395.2ZM312.1 226.5C316.067 224.867 319.8 223.233 323.3 221.6C326.8 219.967 330.183 218.217 333.45 216.35C354.917 204.45 371.25 191.15 382.45 176.45C393.65 161.75 399.25 148.683 399.25 137.25C399.25 129.083 396.45 122.55 390.85 117.65C385.483 112.517 376.967 109.95 365.3 109.95C358.067 109.95 349.55 111.233 339.75 113.8C330.183 116.133 319.217 119.983 306.85 125.35C291.683 131.65 276.867 139.933 262.4 150.2C273.6 160.233 283.633 171.9 292.5 185.2C301.367 198.267 307.9 212.033 312.1 226.5ZM162.3 219.5C173.267 205.967 185.867 193.017 200.1 180.65C214.567 168.05 229.617 156.733 245.25 146.7L234.4 139.35C222.5 131.183 210.717 125.35 199.05 121.85C187.617 118.35 176.883 116.6 166.85 116.6C151.683 116.6 139.083 120.1 129.05 127.1C119.25 134.1 114.35 143.433 114.35 155.1C114.35 161.867 116.45 169.333 120.65 177.5C133.483 164.667 147.6 158.25 163 158.25C166.267 158.25 169.417 158.6 172.45 159.3C175.483 159.767 178.517 160.7 181.55 162.1C182.483 162.333 182.95 162.917 182.95 163.85C182.95 164.55 182.6 165.133 181.9 165.6C181.2 165.833 180.267 165.717 179.1 165.25C174.9 163.617 170.117 162.8 164.75 162.8C149.35 162.8 135.583 169.45 123.45 182.75L124.15 183.8C134.183 198.733 146.9 210.633 162.3 219.5ZM241.75 239.1C264.383 239.1 286.2 235.483 307.2 228.25C303 213.783 296.233 200.367 286.9 188C277.8 175.4 267.417 164.317 255.75 154.75C241.75 164.783 228.333 176.1 215.5 188.7C202.9 201.3 191.817 214.717 182.25 228.95C191.583 232.45 201.267 235.017 211.3 236.65C221.333 238.283 231.483 239.1 241.75 239.1ZM124.5 295.8C125.433 291.6 126.483 287.283 127.65 282.85C129.05 278.417 130.567 273.867 132.2 269.2C138.033 254.5 146.55 239.917 157.75 225.45C149.817 221.017 142.467 215.883 135.7 210.05C129.167 204.217 123.217 197.567 117.85 190.1L116.45 191.85C106.183 204.683 101.05 219.967 101.05 237.7C101.05 247.5 102.917 257.417 106.65 267.45C110.383 277.483 116.333 286.933 124.5 295.8ZM216.55 334.65C233.35 334.65 248.983 331.5 263.45 325.2C277.917 318.9 289.467 309.917 298.1 298.25C306.967 286.583 311.4 272.7 311.4 256.6C311.4 254.033 311.283 251.467 311.05 248.9C310.817 246.333 310.467 243.65 310 240.85L308.6 233.5C286.667 240.967 263.567 244.7 239.3 244.7C228.8 244.7 218.417 243.883 208.15 242.25C197.883 240.617 187.967 238.167 178.4 234.9C169.3 249.133 162.067 264.183 156.7 280.05C154.833 286.583 153.2 292.767 151.8 298.6C150.4 304.433 149.467 310.033 149 315.4C149.933 316.1 150.867 316.8 151.8 317.5C152.733 317.967 153.667 318.433 154.6 318.9C164.633 324.267 174.9 328.233 185.4 330.8C195.9 333.367 206.283 334.65 216.55 334.65Z"
    fill="#EDF1FF" />
  <rect x="2.5" y="2.5" width="495" height="495" rx="97.5" stroke="#EDF1FF" stroke-opacity="0.7" stroke-width="5" />
</svg>