<svg width="100%" height="100%" viewBox="0 0 759 194" fill="none" xmlns="http://www.w3.org/2000/svg">
  <g clip-path="url(#clip0_103_573)">
    <path
      d="M15 96.1498C60.6903 92.6791 133.617 78.9134 180.832 99.9309C194.363 105.954 205.248 122.594 222.023 116.631C231.901 113.12 241.203 116.219 251.601 116.219C271.936 116.219 301.685 72.8432 316.552 84.6606C332.801 97.576 339.073 93.3159 357.574 86.9874C377.507 80.1688 436.973 130.655 459.595 140.82C571.622 191.169 640.932 152.097 743.788 90.9142"
      stroke="#A6ADC8" stroke-width="30" stroke-linecap="round" />
    <path
      d="M708.876 153.74C657.454 67.4585 665.254 70.828 597.785 105.505C586.572 111.269 578.516 109.734 566.195 108.681C542.094 106.62 526.173 128.09 511.185 143.778C474.427 182.259 484.282 144.005 453.145 140.505C424.344 137.269 400.509 184.042 377.017 178.269C321.459 164.612 249.19 131.933 200.858 98.2825C165.972 73.9948 154.965 144.494 140.247 164.38C123.499 187.007 106.089 31.8542 107.08 15"
      stroke="#A6ADC8" stroke-width="30" stroke-linecap="round" />
  </g>
  <defs>
    <clipPath id="clip0_103_573">
      <rect width="759" height="194" rx="97" fill="white" />
    </clipPath>
  </defs>
</svg>